<svg xmlns="http://www.w3.org/2000/svg" width="48" height="48" viewBox="0 0 48 48">
  <defs>
    <style>
      .cls-1 {
        fill: #fff;
        fill-opacity: 0.75;
        fill-rule: evenodd;
      }
    </style>
  </defs>
  <path id="icon-fb" class="cls-1" d="M465.5,3060h39a4.5,4.5,0,0,1,4.5,4.5v39a4.5,4.5,0,0,1-4.5,4.5h-39a4.5,4.5,0,0,1-4.5-4.5v-39A4.5,4.5,0,0,1,465.5,3060Zm6.925,17.58v4.68h-3.434V3088h3.434v17.02h7.052V3088h4.733s0.443-2.75.658-5.76H479.5v-3.91a1.666,1.666,0,0,1,1.529-1.38h3.843v-5.96h-5.225C472.25,3070.99,472.425,3076.72,472.425,3077.58Z" transform="translate(-461 -3060)"/>
</svg>
